<?xml version="1.0" standalone="no"?>
<!DOCTYPE svg PUBLIC "-//W3C//DTD SVG 20010904//EN"
 "http://www.w3.org/TR/2001/REC-SVG-20010904/DTD/svg10.dtd">
<svg version="1.0" xmlns="http://www.w3.org/2000/svg"
 width="1280.000000pt" height="738.000000pt" viewBox="0 0 1280.000000 738.000000"
 preserveAspectRatio="xMidYMid meet">
<metadata>
Created by potrace 1.15, written by Peter Selinger 2001-2017
</metadata>
<g transform="translate(0.000000,738.000000) scale(0.100000,-0.100000)"
fill="#000000" stroke="none">
<path d="M1192 7344 c-75 -43 -104 -84 -135 -192 -20 -71 -21 -96 -19 -348 2
-254 0 -281 -24 -415 -21 -119 -27 -193 -34 -429 -5 -157 -16 -352 -23 -435
-16 -160 -13 -223 19 -428 22 -143 30 -130 -136 -214 -158 -81 -165 -87 -209
-162 -22 -36 -47 -73 -58 -82 -10 -9 -78 -47 -152 -84 -157 -78 -216 -131
-275 -247 -49 -97 -61 -176 -47 -315 15 -150 14 -328 -4 -420 -8 -43 -15 -94
-15 -113 0 -19 29 -119 64 -221 41 -119 77 -245 97 -345 31 -154 32 -169 37
-463 3 -244 1 -326 -12 -420 -10 -72 -18 -215 -20 -381 -3 -146 -10 -287 -15
-315 -12 -52 -57 -150 -112 -244 -31 -51 -33 -60 -40 -198 -4 -79 -10 -151
-13 -161 -8 -25 -23 -196 -41 -447 -8 -121 -18 -230 -20 -243 l-5 -22 730 0
c577 0 730 3 730 13 0 6 -5 31 -10 54 -15 65 -50 423 -50 513 0 82 14 191 53
425 21 122 22 161 22 660 l0 530 33 45 c17 24 32 50 32 57 0 6 60 57 133 111
145 110 387 322 428 378 15 19 45 89 68 155 68 198 98 251 205 361 78 79 102
98 133 104 54 9 172 55 375 145 97 44 181 79 186 79 30 0 211 61 373 125 103
41 213 82 245 90 157 41 356 85 365 80 15 -10 10 -104 -11 -221 -38 -205 -60
-369 -66 -494 -7 -157 -26 -230 -109 -417 -84 -187 -127 -334 -205 -698 -34
-159 -84 -377 -111 -483 -27 -106 -58 -248 -69 -315 -10 -67 -39 -241 -64
-387 -43 -254 -136 -863 -136 -895 0 -13 89 -15 770 -15 l769 0 -5 68 c-13
181 -27 317 -44 412 -20 111 -45 519 -44 705 0 61 6 238 13 395 7 157 14 366
17 465 6 188 59 615 90 724 14 50 29 67 211 245 197 193 288 293 401 443 34
44 73 90 88 102 14 11 41 42 59 67 35 50 71 82 230 211 117 94 186 140 310
204 75 38 98 56 134 104 l44 57 -23 117 c-30 147 -55 237 -76 268 -16 25 -18
25 -123 21 -133 -6 -281 -41 -322 -75 -26 -22 -43 -26 -147 -34 -64 -5 -163
-18 -219 -30 -119 -25 -115 -26 -167 60 -38 61 -147 165 -268 254 -43 31 -78
59 -78 61 0 2 8 24 19 48 17 40 24 45 83 66 45 16 77 36 104 64 50 52 89 68
162 68 49 0 66 -5 106 -31 37 -25 63 -33 129 -40 45 -6 85 -13 90 -18 5 -5 15
-41 23 -82 18 -84 48 -147 98 -208 20 -24 36 -54 36 -67 0 -43 76 -59 135 -28
17 8 82 33 145 55 167 56 173 64 246 329 21 74 46 153 55 175 10 22 19 63 19
91 0 44 -6 59 -42 109 -23 33 -72 126 -110 208 -37 81 -75 158 -83 170 -8 12
-15 29 -15 38 0 30 -82 263 -118 336 -19 40 -49 85 -64 100 -27 26 -36 28
-110 28 l-81 0 -61 67 c-71 77 -112 98 -194 98 -81 0 -110 -12 -307 -125 -93
-54 -199 -115 -235 -135 -36 -20 -90 -52 -120 -72 -30 -19 -93 -55 -140 -78
-47 -24 -150 -84 -230 -135 -146 -92 -267 -165 -373 -224 -81 -46 -154 -106
-174 -144 -13 -25 -16 -52 -14 -127 2 -52 3 -115 3 -140 1 -25 -13 -89 -31
-143 -17 -54 -43 -157 -57 -229 -26 -125 -26 -138 -17 -292 5 -88 7 -166 5
-172 -2 -6 -42 -14 -96 -18 -51 -3 -142 -15 -202 -26 -60 -11 -152 -27 -204
-36 -52 -8 -117 -21 -145 -29 -27 -8 -108 -24 -179 -35 -215 -35 -407 -90
-531 -152 -49 -25 -53 -25 -234 -20 -212 6 -206 3 -256 110 -15 31 -55 107
-90 167 -166 286 -247 497 -315 815 -23 107 -53 227 -66 267 -27 84 -29 100
-19 208 9 96 -10 552 -29 685 -10 74 -11 161 -3 395 5 165 10 341 11 391 l1
91 -48 71 c-71 106 -88 111 -185 56z"/>
<path d="M6688 6683 c-40 -25 -76 -99 -89 -184 -18 -112 -5 -755 23 -1124 23
-305 32 -858 15 -935 -6 -31 -16 -41 -77 -73 -78 -43 -105 -71 -122 -131 -6
-22 -18 -51 -26 -64 -8 -12 -21 -53 -28 -90 -27 -128 -62 -206 -125 -279 -33
-37 -73 -97 -90 -133 -17 -35 -59 -105 -94 -155 -34 -49 -65 -103 -67 -118 -3
-16 4 -67 15 -114 l20 -86 -23 -95 c-20 -84 -22 -111 -16 -211 15 -269 50
-500 94 -611 14 -36 71 -146 126 -245 l101 -180 -3 -155 c-3 -187 -24 -293
-117 -580 -88 -271 -125 -447 -170 -805 -9 -72 -23 -161 -31 -198 -8 -38 -14
-79 -14 -93 l0 -24 1985 0 1985 0 0 28 c0 69 -21 418 -30 512 -13 124 -71 427
-106 555 -34 121 -203 622 -258 765 -24 63 -87 205 -139 315 -165 350 -172
409 -56 505 52 43 76 55 192 90 72 23 161 52 197 65 79 30 320 109 375 124 22
7 99 16 172 21 163 12 248 -1 385 -58 53 -22 112 -43 130 -47 18 -4 39 -16 46
-26 17 -25 157 -77 239 -88 101 -15 316 -31 410 -31 93 0 104 6 136 79 40 91
7 175 -88 220 -48 22 -320 91 -362 91 -57 0 -103 22 -219 105 -66 46 -156 105
-201 130 -88 50 -132 92 -165 160 l-21 43 53 78 c28 44 54 81 56 83 2 2 99 4
216 5 234 3 378 22 628 86 l122 32 148 -11 c262 -19 631 -26 673 -12 84 28
143 111 134 189 -4 41 -3 45 26 61 44 23 116 90 134 125 21 41 12 111 -18 142
l-24 23 -300 -9 c-397 -13 -673 6 -875 62 -89 24 -195 25 -355 4 -81 -11 -141
-12 -230 -6 -171 11 -192 22 -171 90 21 68 89 121 226 179 69 29 148 66 175
81 28 16 80 34 120 40 158 27 350 85 518 159 96 42 158 52 352 60 245 10 298
24 366 95 28 29 56 71 65 96 9 25 23 62 31 82 20 47 11 82 -24 96 -34 14 -143
18 -198 9 -22 -4 -80 -11 -130 -17 -49 -5 -189 -21 -310 -35 -121 -14 -281
-30 -355 -35 -74 -5 -208 -14 -298 -20 -193 -13 -277 -33 -421 -98 -228 -105
-693 -281 -796 -302 -33 -7 -73 -19 -88 -27 -15 -8 -74 -30 -130 -49 -128 -45
-186 -81 -241 -153 -39 -50 -52 -59 -112 -79 -73 -25 -444 -205 -579 -281
-208 -117 -554 -346 -651 -430 -29 -25 -66 -56 -83 -69 -38 -29 -91 -178 -96
-270 -4 -87 -17 -95 -44 -30 -12 29 -32 74 -46 99 -35 66 -44 150 -41 359 4
173 6 194 39 322 20 76 43 189 52 250 13 89 28 141 70 248 67 166 81 211 151
469 30 113 70 253 89 311 19 58 48 164 65 236 16 71 36 150 45 173 8 24 15 53
15 65 0 12 20 81 45 154 57 171 64 216 37 268 -24 48 -91 111 -126 120 -45 11
-93 -14 -156 -84 -102 -110 -146 -192 -216 -400 -35 -103 -67 -209 -70 -237
-4 -27 -21 -79 -39 -115 -18 -36 -52 -119 -75 -185 -73 -207 -165 -444 -235
-605 -37 -85 -98 -234 -136 -330 -59 -150 -76 -184 -124 -242 -60 -72 -70 -76
-136 -57 -119 36 -171 148 -199 429 -6 58 -19 166 -30 240 -10 74 -26 232 -35
350 -8 118 -20 253 -25 300 -5 47 -12 132 -15 190 -3 58 -10 129 -16 158 -6
29 -14 153 -18 275 -6 193 -10 228 -28 268 -56 126 -187 200 -265 152z m1417
-4569 c8 -9 22 -28 29 -42 18 -36 61 -332 58 -403 -2 -37 4 -75 18 -111 11
-29 24 -92 29 -138 23 -209 53 -368 116 -620 48 -193 59 -282 40 -344 -8 -27
-20 -55 -26 -63 -7 -7 -22 -53 -34 -101 -19 -71 -27 -88 -43 -90 -20 -3 -111
25 -352 109 -243 85 -249 88 -257 128 -22 104 6 372 67 641 10 47 28 143 40
213 11 71 25 138 31 150 7 11 13 46 16 76 2 31 13 90 24 131 12 41 25 108 29
147 5 54 14 81 32 105 14 18 44 67 68 108 44 76 77 120 91 120 4 0 15 -7 24
-16z"/>
</g>
</svg>
