<?xml version="1.0" standalone="no"?>
<!DOCTYPE svg PUBLIC "-//W3C//DTD SVG 20010904//EN"
 "http://www.w3.org/TR/2001/REC-SVG-20010904/DTD/svg10.dtd">
<svg version="1.0" xmlns="http://www.w3.org/2000/svg"
 width="746.000000pt" height="1280.000000pt" viewBox="0 0 746.000000 1280.000000"
 preserveAspectRatio="xMidYMid meet">
<metadata>
Created by potrace 1.15, written by Peter Selinger 2001-2017
</metadata>
<g transform="translate(0.000000,1280.000000) scale(0.100000,-0.100000)"
fill="#000000" stroke="none">
<path d="M5705 12781 c-80 -36 -347 -270 -446 -389 -104 -127 -228 -207 -389
-252 -41 -11 -156 -34 -255 -50 -99 -17 -223 -40 -276 -51 l-97 -22 -58 36
c-33 19 -104 57 -159 85 -298 148 -455 249 -600 382 -103 95 -184 150 -221
150 -90 0 -126 -217 -69 -415 16 -57 75 -192 160 -365 154 -316 179 -387 179
-510 0 -78 -3 -93 -41 -180 -81 -184 -116 -341 -115 -510 0 -92 5 -132 25
-198 21 -72 22 -83 8 -78 -135 45 -190 56 -275 56 -51 0 -118 -7 -151 -15 -71
-19 -175 -64 -175 -76 0 -13 3 -12 66 16 163 72 334 74 502 8 57 -23 65 -30
89 -77 39 -78 114 -184 216 -309 117 -142 118 -143 71 -119 -117 58 -256 87
-393 80 -125 -7 -225 -34 -446 -119 -228 -88 -234 -91 -214 -96 9 -2 97 28
196 66 294 115 333 124 503 125 138 0 149 -1 240 -33 52 -17 118 -45 146 -62
44 -25 52 -34 58 -67 12 -72 77 -142 133 -142 12 0 24 -4 27 -9 4 -6 -453
-261 -469 -261 -2 0 -13 17 -26 38 -84 142 -94 148 -234 132 -98 -12 -105 -12
-137 7 -18 11 -47 23 -65 26 -38 8 -123 -16 -172 -48 -78 -50 -150 -146 -151
-202 -1 -10 -18 -30 -39 -44 -59 -41 -85 -105 -84 -204 0 -44 6 -92 12 -108
l11 -27 -303 -151 c-284 -143 -308 -153 -414 -174 -369 -76 -611 -50 -810 87
-23 16 -76 60 -117 98 -93 86 -160 121 -243 128 -54 4 -70 1 -118 -23 -67 -32
-124 -99 -154 -180 -12 -31 -21 -60 -21 -64 0 -5 -53 -34 -117 -65 -64 -31
-135 -72 -159 -91 -199 -163 -172 -496 69 -848 72 -106 190 -229 269 -281 69
-46 118 -54 232 -37 l82 12 75 -40 c141 -76 241 -87 345 -36 74 36 143 142
194 300 49 150 113 248 251 380 91 88 221 185 325 246 l52 29 11 -77 c20 -135
83 -237 176 -286 31 -16 63 -22 140 -25 182 -7 360 40 603 159 79 39 145 69
147 67 2 -1 29 -48 60 -103 111 -194 208 -306 301 -347 69 -30 155 -23 224 20
29 18 54 31 55 30 2 -2 -5 -37 -16 -78 -49 -196 -105 -509 -143 -795 -59 -445
-81 -774 -73 -1120 l5 -250 -50 -180 c-112 -404 -141 -504 -173 -585 -35 -92
-102 -229 -142 -294 -52 -81 -118 -323 -149 -541 -35 -246 -18 -579 35 -684
81 -161 153 -261 340 -467 361 -400 409 -546 298 -892 -110 -343 -197 -434
-442 -467 -61 -8 -128 -19 -150 -25 -22 -5 -62 -10 -88 -10 -87 0 -219 -87
-253 -167 -69 -162 103 -383 342 -438 58 -14 90 -15 219 -6 327 23 521 95 681
255 66 66 89 97 121 166 22 47 46 108 53 135 21 88 97 226 196 360 155 208
179 279 178 510 0 144 -22 331 -44 389 -11 31 -7 32 28 8 68 -46 191 -90 527
-187 335 -97 420 -129 478 -184 27 -25 57 -61 67 -81 38 -74 91 -508 78 -641
-24 -255 -96 -436 -227 -567 -29 -29 -96 -85 -149 -126 -122 -92 -176 -150
-214 -232 -39 -83 -39 -129 0 -197 55 -98 160 -150 397 -197 153 -30 202 -46
208 -71 5 -20 11 -21 84 -14 43 3 96 11 118 17 165 43 264 176 305 410 6 29
14 189 20 355 5 166 15 334 21 375 6 40 12 118 14 173 5 132 22 210 99 445 84
255 110 378 103 487 -4 45 -11 91 -17 102 -5 11 -58 89 -117 173 -263 379
-345 567 -346 793 0 147 40 279 123 400 102 150 157 380 167 703 l6 182 38 0
c62 0 256 29 369 56 327 76 558 182 682 311 81 86 102 131 103 223 0 93 -27
175 -53 161 -9 -4 -51 -11 -93 -14 -105 -7 -165 -35 -233 -108 -61 -66 -111
-93 -214 -114 -162 -33 -435 -27 -637 15 -132 26 -140 31 -160 87 -10 26 -28
72 -41 102 -49 109 -56 161 -44 294 35 379 96 582 404 1334 224 550 327 836
422 1170 37 133 40 169 24 358 -36 417 -125 836 -280 1310 -63 192 -110 375
-110 424 0 17 8 20 60 23 34 2 59 7 58 13 -2 6 -29 9 -65 7 l-61 -4 -11 54
c-6 29 -22 118 -36 198 -14 80 -29 155 -32 168 -5 21 -3 22 66 22 41 0 71 4
71 10 0 6 -24 10 -52 10 -90 0 -94 3 -113 83 -46 193 -127 391 -212 522 -22
33 -70 96 -108 140 -72 84 -103 141 -131 240 -15 51 -18 111 -20 390 -1 182
-7 349 -12 372 -5 23 -6 74 -2 117 8 86 -2 161 -27 188 -20 23 -57 23 -108 -1z
m-76 -147 c-14 -14 -14 -19 7 -59 39 -78 49 -169 49 -452 0 -144 -2 -264 -5
-266 -7 -8 -681 235 -678 243 2 4 53 48 113 97 61 50 178 150 260 224 184 164
259 228 265 229 2 0 -3 -7 -11 -16z m-2281 -153 c111 -57 210 -135 245 -192
18 -30 79 -116 134 -192 56 -76 114 -163 130 -193 26 -52 27 -56 10 -65 -49
-28 -125 -100 -152 -143 -108 -173 -111 -175 -189 -94 -119 123 -269 457 -321
716 -17 81 -15 135 6 174 15 27 71 22 137 -11z m517 -895 c71 -156 125 -252
207 -373 224 -330 473 -445 729 -337 l60 24 134 -45 c452 -150 712 -162 942
-41 78 41 158 106 213 173 19 23 38 42 41 42 18 2 99 -216 99 -266 0 -22 -4
-23 -67 -23 -434 0 -881 -155 -1373 -477 -140 -92 -163 -110 -152 -117 5 -3
44 20 88 50 117 82 323 203 459 271 326 164 611 240 911 246 l139 2 8 -100 c5
-55 18 -155 31 -222 l22 -122 -25 -5 c-15 -3 -100 -8 -191 -11 -508 -19 -726
-51 -1135 -167 -191 -54 -237 -70 -224 -82 2 -2 95 23 206 55 426 123 616 151
1183 176 96 4 179 8 184 8 5 0 22 -48 37 -107 15 -59 64 -228 108 -375 44
-147 96 -335 116 -418 20 -82 51 -211 70 -285 94 -369 107 -645 44 -938 -46
-214 -133 -451 -254 -697 -107 -216 -172 -365 -255 -580 -59 -153 -157 -447
-181 -543 -10 -42 -22 -60 -51 -83 -144 -114 -419 -759 -498 -1165 -22 -116
-26 -237 -9 -281 6 -15 18 -59 25 -98 22 -113 54 -164 159 -261 72 -66 98 -98
112 -133 49 -131 197 -324 270 -352 13 -5 23 -14 23 -21 -1 -20 -83 -254 -124
-350 -47 -110 -60 -182 -53 -289 10 -158 70 -295 254 -584 130 -202 193 -318
228 -419 l23 -69 -20 -51 c-121 -301 -163 -534 -213 -1166 -24 -297 -57 -599
-75 -682 -18 -87 -91 -166 -179 -196 -19 -7 -61 -12 -95 -12 -71 0 -116 22
-141 69 -19 38 -19 65 1 162 21 107 18 120 -23 85 -43 -36 -56 -81 -52 -183 3
-70 1 -88 -12 -96 -25 -16 -86 1 -125 35 -74 65 -83 129 -29 204 40 56 75 118
75 134 0 5 -11 10 -24 10 -61 0 -186 -166 -186 -247 0 -21 -5 -33 -13 -33 -27
0 -134 78 -155 112 -29 47 -28 85 6 139 36 56 68 84 244 210 157 113 274 223
302 282 13 29 20 80 26 205 5 92 14 251 21 353 18 281 -3 434 -81 594 -65 134
-58 129 -268 180 -515 125 -898 272 -1015 388 -152 150 -199 510 -132 996 16
115 56 318 74 379 16 54 2 36 -34 -42 -102 -224 -156 -471 -156 -716 0 -217
38 -384 127 -565 39 -77 51 -120 94 -325 27 -129 54 -277 60 -329 25 -200 -18
-343 -156 -532 -27 -36 -61 -101 -79 -149 -121 -324 -303 -537 -527 -618 -63
-23 -92 -26 -208 -29 -74 -1 -147 -5 -162 -9 -24 -5 -29 -2 -38 22 -8 19 -8
46 -2 84 6 30 9 57 7 58 -2 2 -13 -14 -24 -37 -29 -56 -79 -111 -102 -111 -34
0 -42 36 -36 154 l7 111 -25 -40 c-21 -34 -35 -71 -61 -164 -6 -18 -72 -8
-125 19 -53 28 -73 69 -66 138 14 132 166 262 306 262 20 0 65 -9 99 -20 77
-24 102 -25 172 -4 111 33 197 155 301 425 28 73 59 149 69 168 45 90 49 266
10 410 -47 168 -142 311 -349 525 -121 125 -154 165 -187 231 -93 181 -119
304 -118 565 0 198 12 308 55 520 40 198 61 262 107 333 93 144 127 240 167
472 37 214 84 343 185 514 l30 53 -12 111 c-20 174 -16 884 6 1122 38 428 92
742 176 1029 39 135 112 315 148 369 34 49 72 122 72 137 0 60 -176 -137 -218
-245 -7 -16 -16 -54 -22 -84 -6 -30 -19 -84 -30 -121 -18 -62 -23 -68 -62 -86
-129 -58 -273 11 -397 191 -61 88 -137 243 -124 255 4 5 60 47 123 95 135 101
300 186 418 216 l84 21 63 -31 c83 -41 170 -134 310 -331 61 -85 141 -187 178
-227 82 -86 115 -97 287 -96 207 1 318 38 740 244 207 101 324 151 428 185
131 42 230 92 239 121 4 10 -194 -41 -367 -95 -47 -15 -212 -90 -368 -168
-162 -82 -331 -158 -395 -180 -110 -38 -115 -38 -262 -39 -126 0 -159 4 -204
20 -53 20 -55 22 -136 157 -152 253 -272 400 -398 489 -198 139 -372 130 -594
-32 -100 -73 -155 -98 -210 -99 -33 0 -46 5 -62 26 -26 33 -28 109 -5 142 15
22 14 22 -24 22 -49 0 -86 28 -102 75 -21 62 3 121 62 151 14 7 61 39 105 70
148 107 290 162 473 183 90 11 100 10 178 -13 134 -41 281 -103 382 -163 90
-54 175 -130 281 -252 44 -51 69 -53 159 -10 52 24 86 52 168 137 132 136 212
242 357 472 149 236 214 326 296 410 113 116 241 185 363 197 56 5 69 2 139
-30 43 -20 91 -45 107 -57 38 -27 38 -14 1 37 -35 48 -110 97 -173 114 -116
31 -312 -53 -473 -204 -110 -102 -194 -210 -355 -452 -168 -252 -278 -402
-361 -487 l-64 -66 -52 8 c-72 12 -112 35 -129 76 -14 34 -14 36 24 92 91 133
132 249 132 371 0 77 -26 162 -60 199 -27 29 -26 32 14 32 51 0 185 27 262 54
93 31 147 60 194 102 50 45 234 304 216 304 -2 0 -65 -50 -138 -111 -202 -168
-334 -249 -436 -269 -64 -12 -86 -5 -148 42 -77 58 -104 105 -121 212 -21 127
-20 156 5 206 12 24 19 46 16 49 -3 3 -35 -2 -72 -12 -123 -30 -169 -31 -245
-1 -34 13 -17 -24 33 -72 28 -26 50 -54 50 -62 0 -27 -63 -133 -97 -162 -47
-42 -89 -40 -131 3 -21 21 -30 39 -27 50 4 9 -1 19 -12 26 -12 6 -27 35 -38
72 -16 53 -26 66 -69 99 -63 47 -144 131 -183 190 -36 54 -76 130 -71 136 4 3
50 -31 232 -171 59 -46 104 -57 114 -28 2 9 -5 11 -25 7 -24 -4 -42 7 -123 72
-52 42 -123 96 -157 121 -58 41 -64 49 -83 110 -67 218 -42 542 66 831 45 121
105 242 152 307 43 59 133 157 139 151 3 -2 28 -56 58 -120z m432 -1812 c23
-25 43 -82 43 -122 0 -30 -28 -97 -37 -88 -4 4 -17 30 -28 59 -23 56 -59 85
-90 73 -17 -6 -15 -9 12 -25 30 -19 53 -77 36 -91 -9 -8 -384 -73 -388 -68 -2
2 59 39 136 83 109 63 139 85 139 101 0 34 43 88 80 101 43 14 68 9 97 -23z
m-994 -274 c14 -11 33 -43 43 -72 l17 -52 -36 -33 c-57 -52 -138 -46 -217 17
l-38 30 -12 -30 c-18 -43 -83 -98 -125 -106 -35 -6 -72 -2 -109 12 -17 7 -17
5 -2 -24 35 -68 4 -149 -72 -185 -26 -12 -51 -28 -55 -34 -11 -18 -22 -16 -55
12 -36 31 -47 83 -27 132 8 20 44 63 79 98 56 55 64 67 68 108 7 59 46 111 94
127 31 11 47 9 111 -10 85 -25 131 -23 228 9 76 25 77 25 108 1z m852 -5 c256
-75 381 -376 227 -547 -30 -33 -97 -78 -116 -78 -3 0 -13 14 -22 32 -15 29
-15 32 1 41 43 23 95 82 111 122 65 172 -109 332 -322 295 -81 -15 -141 -40
-429 -180 -137 -67 -547 -266 -910 -442 -363 -176 -687 -336 -720 -356 -139
-83 -295 -193 -329 -234 -44 -51 -129 -177 -203 -302 l-53 -90 0 70 c0 95 -38
240 -105 399 -31 72 -126 258 -161 312 -18 29 -30 53 -26 53 5 0 69 -16 143
-34 217 -56 302 -69 409 -63 153 9 24 -48 1520 674 549 265 651 313 709 329
66 18 212 17 276 -1z m-1008 -200 c3 -9 -2 -24 -12 -35 -13 -15 -22 -17 -36
-9 -24 12 -24 35 -1 48 25 15 42 13 49 -4z m1044 -80 c51 -18 89 -51 89 -77 0
-58 -97 -168 -148 -168 -17 0 -56 17 -92 41 -35 22 -92 50 -127 60 -35 11 -78
33 -96 48 -27 25 -30 31 -17 45 34 42 119 64 251 65 63 1 112 -4 140 -14z
m-1211 -25 c0 -11 -9 -24 -20 -30 -16 -9 -20 -8 -20 5 0 24 20 56 31 50 5 -4
9 -15 9 -25z m-2203 -344 c87 -41 134 -94 222 -249 305 -539 373 -880 231
-1162 -62 -124 -57 -120 -158 -120 -62 1 -96 6 -119 18 -32 17 -63 53 -63 72
0 5 35 30 77 55 42 25 104 72 138 106 78 76 91 118 82 268 -18 296 -165 564
-407 739 -93 67 -144 89 -222 95 -66 5 -68 5 -68 32 0 42 58 120 109 147 57
30 112 29 178 -1z m2088 -228 c10 -58 31 -97 59 -108 19 -7 24 -18 30 -62 7
-61 19 -48 -134 -147 -104 -67 -139 -99 -173 -161 l-18 -33 -67 5 c-109 8
-173 50 -197 130 -15 52 -7 137 16 164 27 33 430 254 463 254 9 0 17 -16 21
-42z m-2212 -57 c72 -25 128 -64 198 -137 247 -261 336 -644 194 -836 -60 -81
-156 -125 -328 -148 -142 -20 -217 10 -334 133 -79 83 -134 166 -198 301 -111
230 -152 437 -99 491 20 19 96 20 133 0 117 -60 257 -346 321 -655 12 -58 25
-118 29 -135 l8 -30 11 40 c17 59 14 139 -8 235 -25 103 -121 346 -165 415
-41 65 -132 147 -195 177 -27 13 -48 27 -47 32 6 18 134 88 207 111 95 31 195
33 273 6z m3091 -39 c5 -8 -431 -259 -644 -371 -158 -83 -276 -109 -340 -76
-39 20 -46 48 -21 88 32 52 171 147 216 147 19 0 19 -3 -5 -50 -11 -22 -20
-51 -20 -65 0 -52 50 -34 283 102 134 78 391 207 442 222 39 12 82 13 89 3z
m-1481 -179 c-13 -47 -8 -136 10 -170 69 -131 245 -192 405 -141 39 12 105 2
99 -15 -5 -16 -142 -70 -241 -96 -49 -13 -111 -21 -162 -21 -79 0 -83 1 -128
38 -60 48 -123 133 -137 184 -21 79 14 161 93 218 53 39 71 39 61 3z"/>
<path d="M3580 10755 c0 -34 215 -325 239 -325 28 0 41 21 41 65 0 56 -40 137
-76 154 -37 17 -39 18 -114 69 -57 38 -90 51 -90 37z"/>
<path d="M4915 10730 c-192 -29 -373 -119 -421 -211 -8 -16 -14 -46 -14 -69 0
-35 3 -40 23 -40 30 0 83 34 115 73 59 73 129 136 157 142 65 14 224 67 242
81 16 12 16 15 3 24 -17 11 -32 11 -105 0z"/>
<path d="M206 8154 c-20 -51 20 -197 93 -342 40 -79 53 -92 95 -92 32 0 46 19
46 64 -1 144 -200 459 -234 370z"/>
</g>
</svg>
